<?xml version="1.0" encoding="UTF-8" standalone="no"?>
<!-- Created with Inkscape (http://www.inkscape.org/) -->

<svg
   width="16"
   height="16"
   viewBox="0 0 4.2333333 4.2333335"
   version="1.1"
   id="svg291"
   inkscape:version="1.2 (dc2aedaf03, 2022-05-15)"
   sodipodi:docname="animation_director.svg"
   xmlns:inkscape="http://www.inkscape.org/namespaces/inkscape"
   xmlns:sodipodi="http://sodipodi.sourceforge.net/DTD/sodipodi-0.dtd"
   xmlns="http://www.w3.org/2000/svg"
   xmlns:svg="http://www.w3.org/2000/svg">
  <sodipodi:namedview
     id="namedview293"
     pagecolor="#ffffff"
     bordercolor="#666666"
     borderopacity="1.0"
     inkscape:pageshadow="2"
     inkscape:pageopacity="0.0"
     inkscape:pagecheckerboard="0"
     inkscape:document-units="px"
     showgrid="false"
     width="1920px"
     units="px"
     borderlayer="true"
     inkscape:showpageshadow="false"
     inkscape:deskcolor="#d1d1d1"
     inkscape:zoom="39.556077"
     inkscape:cx="12.172592"
     inkscape:cy="7.2808029"
     inkscape:window-width="2560"
     inkscape:window-height="1377"
     inkscape:window-x="-8"
     inkscape:window-y="-8"
     inkscape:window-maximized="1"
     inkscape:current-layer="layer1"
     inkscape:lockguides="false" />
  <defs
     id="defs288" />
  <g
     inkscape:label="Layer 1"
     inkscape:groupmode="layer"
     id="layer1">
    <path
       id="path18677"
       style="fill:#ff0079;fill-opacity:1;stroke:none;stroke-width:0.264584;stroke-linecap:round;stroke-linejoin:round;stroke-dasharray:none;stroke-opacity:1;paint-order:markers stroke fill"
       d="M 2.252059 0.0041341146 L 2.252059 0.79271648 L 1.9885091 0.79271648 L 1.9885091 0.004650879 A 2.1166666 2.1166668 0 0 0 0.71881918 0.52916667 L 1.2795085 1.0877889 L 1.091923 1.2753744 L 0.5317505 0.71520183 A 2.1166666 2.1166668 0 0 0 0.004650879 1.984375 L 0.7968506 1.984375 L 0.7968506 2.2479248 L 0.004650879 2.2479248 A 2.1166666 2.1166668 0 0 0 0.53226726 3.5186483 L 1.091923 2.9589926 L 1.2795085 3.146578 L 0.71933595 3.7046835 A 2.1166666 2.1166668 0 0 0 1.9885091 4.2286825 L 1.9885091 3.4395834 L 2.252059 3.4395834 L 2.252059 4.2286825 A 2.1166666 2.1166668 0 0 0 3.5181316 3.7015829 L 2.9631267 3.146578 L 3.1486451 2.9589926 L 3.7041667 3.515031 A 2.1166666 2.1166668 0 0 0 4.2286825 2.2479248 L 3.4432007 2.2479248 L 3.4432007 1.984375 L 4.2291993 1.984375 A 2.1166666 2.1166668 0 0 0 3.705717 0.71830242 L 3.1486451 1.2753744 L 2.9631267 1.0877889 L 3.5191651 0.5317505 A 2.1166666 2.1166668 0 0 0 2.252059 0.0041341146 z " />
    <circle
       style="fill:#ffffff;fill-opacity:1;stroke:none;stroke-width:0.264583;stroke-linecap:round;stroke-linejoin:round;stroke-dasharray:none;stroke-opacity:1;paint-order:markers stroke fill"
       id="ellipse1790"
       cx="2.1166668"
       cy="2.1166668"
       r="0.58492762" />
    <path
       sodipodi:type="star"
       style="fill:#ffffff;fill-opacity:1;stroke:none;stroke-width:0.593794;stroke-linecap:round;stroke-linejoin:round;stroke-dasharray:none;stroke-opacity:1"
       id="path1846"
       inkscape:flatsided="true"
       sodipodi:sides="4"
       sodipodi:cx="-1.6320713"
       sodipodi:cy="1.1170324"
       sodipodi:r1="2.2697275"
       sodipodi:r2="1.6049397"
       sodipodi:arg1="1.5707963"
       sodipodi:arg2="2.3561945"
       inkscape:rounded="0"
       inkscape:randomized="0"
       d="M -1.6320712,3.3867599 -3.9017987,1.1170325 -1.6320713,-1.1526951 0.63765621,1.1170323 Z"
       transform="matrix(0.11008834,0.19067859,-0.7809287,0.45086939,3.1723495,1.9546754)" />
  </g>
</svg>
